<svg width="43" height="60" viewBox="0 0 43 60" xmlns="http://www.w3.org/2000/svg" xmlns:sketch="http://www.bohemiancoding.com/sketch/ns"><title>account</title><desc>Created with Sketch.</desc><path d="M0 59.159s.1-7.574 0-7.673c1.997-1.165 10.185-2.756 12.103-3.963 2.122-1.335 1.441-8.641 1.441-8.641l-1.441-1.26s-.29-3.345-.991-4.5c-1.2-1.976-2.881-7.2-2.881-7.2s-1.441-1.048-1.441-2.88c0-1.832 1.441-2.88 1.441-2.88s-1.125-5.098-1.125-8.641c0-8.054 6.128-11.521 14.526-11.521 8.399 0 13.071 4.078 13.071 11.521 0 3.541-.54 8.641-.54 8.641s1.441 1.048 1.441 2.88c0 1.832-1.441 2.88-1.441 2.88s-1.48 4.515-2.881 7.2c-.627 1.198-.991 4.5-.991 4.5l-1.441 1.26s-.683 7.306 1.441 8.641c1.892 1.191 9.897 2.758 12.022 3.917.001.071 0 7.719 0 7.719h-42.311z" sketch:type="MSShapeGroup" fill="#38444F"/></svg>