<svg width="50" height="50" viewBox="0 0 50 50" xmlns="http://www.w3.org/2000/svg"
     xmlns:sketch="http://www.bohemiancoding.com/sketch/ns">
    <title>search 2</title>
    <desc>Created with Sketch.</desc>
    <path d="M31.485 35.02l14.959 14.959 3.535-3.535-14.959-14.959c5.912-7.647 5.36-18.678-1.655-25.693-7.614-7.614-19.959-7.614-27.573 0-7.614 7.614-7.614 19.959 0 27.573 7.015 7.015 18.046 7.567 25.693 1.655zm.466-3.069c6.833-6.833 6.833-17.912 0-24.745-6.833-6.833-17.912-6.833-24.745 0-6.833 6.833-6.833 17.912 0 24.745 6.833 6.833 17.912 6.833 24.745 0z"
          sketch:type="MSShapeGroup" fill="#38444F"/>
</svg>
